<svg version="1" xmlns="http://www.w3.org/2000/svg" width="682.667" height="682.667" viewBox="0 0 512.000000 512.000000"><path d="M122.5 1.6C98.5 6 75.5 16 57.6 29.8c-30.8 23.7-51 58.3-56.6 97-1.8 12.1-.7 41.2 1.8 52.3 2.1 8.9 6.5 22.5 8.7 26.9.7 1.4 2.2 4.5 3.4 7 6.7 13.6 15.5 26.1 25.9 36.8 16.9 17.2 29.5 25.5 55.4 36.6 4.5 1.9 21.2 6.2 28.3 7.3 7.9 1.3 43.3.9 50-.6 39.3-8.2 72.4-29.6 93.6-60.6 14-20.4 18.2-29.9 24.1-54 2.9-12 3.6-40.7 1.4-54-5.8-33.7-19.6-60.1-43.7-83.6-4.9-4.7-10.8-9.9-13.1-11.5-2.4-1.5-5.1-3.5-6.1-4.4-9-7.4-32.9-17.8-51.3-22.1-11.9-2.8-44.9-3.6-56.9-1.3zm55 28.9c9.9 2.6 20.8 6.9 28.5 11.5 2.8 1.7 5.3 3 5.5 3 1 0 13.2 9.6 18.9 14.7 5.3 4.9 12.6 13.2 15.1 17.2.6.9 2.3 3.6 3.9 6.1 19.2 29.6 24.2 70 12.6 102.4-9 25.2-20 40.6-41.2 57.7-10.3 8.2-20.1 13.5-35.4 18.9-28.1 10-64.6 7.5-91.5-6.3C81 249 67.8 239.2 59.4 230c-4.9-5.3-14.4-17.6-14.4-18.5 0-.2-1.3-2.7-3-5.5-6.7-11.3-13-30.2-14.5-43.5-2.6-22.2 1.4-47.4 10.5-65.8 7.2-14.4 13.3-23.1 24-33.8 11.4-11.4 19.2-17 33.7-24.3 24.3-12.1 54.8-15.1 81.8-8.1z"/><path d="M144.2 35.1c-4 1.2-7.2 6-7.2 11 0 9.9 15.2 13.4 19.9 4.5 1.9-3.5.8-10.3-2.1-13.2-2.8-2.8-6.3-3.6-10.6-2.3zM191.3 48c-2.2 1.3-3.6 3.2-4.4 6.1-1.1 3.7-1.1 4.5.7 7.7 2.6 4.9 8.6 7 13.7 4.8 7.2-3 8.5-11.9 2.7-17.8-3.4-3.4-8-3.7-12.7-.8zM91.4 48.8c-3.8 2.4-5.8 7.1-5 11.5.7 4 2.7 6 7.7 7.7 4.8 1.7 10.1-.7 12.4-5.7 1.5-3.1 1.5-4.1.5-7.4-1.7-5-3.9-7-8.7-7.5-2.7-.4-4.7.1-6.9 1.4zM137 93.8v30.9l-4.1 3.3c-6.6 5.3-9.9 11.3-9.9 18.2 0 9 1.8 13.6 7.4 19 5.4 5.3 9.3 6.8 17.7 6.8 7.5 0 15.1-3.8 19.2-9.7l3.1-4.3H205v-21h-34.7l-3.2-4.5c-1.8-2.5-4.6-5.2-6.2-6l-2.9-1.6V63h-21v30.8zM53.4 84.8c-3.8 2.4-5.8 7.1-5 11.5.8 4 2.8 6 7.8 7.6 8.2 2.7 15.2-4.4 12.7-12.9-.7-2.2-2-4.7-3-5.6-2.8-2.5-8.9-2.8-12.5-.6zM228.3 86.4c-3.8 3.2-4.7 6.4-3.3 11.6 1.4 5 4.2 7 10.3 7 7.6 0 10.4-3.8 9.7-13-.3-3.8-3.9-6.9-9.1-7.6-3.9-.5-4.9-.3-7.6 2zM44 136.1c-5 1.1-8 5-8 10.5 0 5.4 2.9 8.9 8.4 9.9 7.7 1.5 13.3-4 12.3-11.7-.9-6.7-5.9-10.2-12.7-8.7zM244.2 136.7c-8.5 4.2-8.1 16.4.6 19.2 9.9 3.3 16.8-4.2 13.2-14.5-1.8-5.2-8.3-7.5-13.8-4.7zM230 184.7c-2.9 1.1-5.9 4.6-6.5 7.4-.9 4.2 1.2 9.8 4.6 11.8 5.9 3.6 15.6-.2 16.1-6.3 0-1.1.2-2.8.3-3.6.2-1.9-1.9-6.3-3.7-7.8-1.7-1.3-8.7-2.4-10.8-1.5zM54.4 186.9c-3.9 2.4-5.8 6.9-5 11.6.9 4.8 7 9 11.9 8.1 4.7-.9 7.4-3.1 8.7-7.2 1-3 .9-4.2-.6-7.6-2.9-6.5-9.1-8.5-15-4.9zM91.4 222c-1.2.4-3.1 2.1-4.4 3.7-4.7 6 0 16.7 7.3 16.7 7.5 0 11.7-3.9 11.9-11.1.1-4.2-1.9-7.3-5.7-8.9-3.8-1.6-6-1.7-9.1-.4zM194.4 222.6c-4.1.9-6.7 5-6.8 10.4-.1 6 2.1 8.7 8.3 10.1 8.2 1.8 14.4-4.6 12.2-12.7-.6-2.3-1.9-4.8-3-5.8-2-1.8-7.1-2.7-10.7-2zM142.1 238.4c-5.4 3-6.9 11.9-2.7 16.1 4.6 4.6 13.6 4.2 17.1-.9 3-4.2 1-13.2-3.4-15.6-2.7-1.4-8.1-1.2-11 .4z"/><path d="M384.5 35c-.3.5-.3 1 .1 1s-.1.7-1.2 1.5c-1.6 1.2-9.3 1.4-50.1 1.5-26.6 0-48.3.4-48.3.8 0 .5 1.5 2.6 3.3 4.8 4.9 5.7 16.2 25.7 19.2 33.7.8 2 2.1 5.2 2.9 7 2.2 4.8 5.6 16.2 7.5 25.2l1.6 8 3.7.3c3.2.3 3.6.6 2.8 2-1.2 2-2.7 6.3-2.8 7.6 0 .5-.5 1.2-1 1.5-.5.3-2.1 3.1-3.5 6.1-5.2 11.4-8.9 19.7-11.1 25.5-1.3 3.3-2.7 6.9-3.1 8-1 2.4-.9 2.2-1.9 6.2-.4 1.8-1.1 3.3-1.5 3.3-.4 0-1.3 2.4-2.1 5.2-.7 2.9-2.4 8.6-3.7 12.7-1.3 4.1-2.2 8-1.9 8.8.3.7.1 1.3-.5 1.3s-.9.7-.6 1.5c.4.8.2 1.7-.4 2.1-.6.3-.8 1.1-.6 1.7.2.7 0 2.3-.6 3.7-.5 1.4-1.1 3.8-1.3 5.5-.2 1.6-.6 4-.9 5.3-.3 1.2-.8 4.4-1.1 7-.3 2.6-.9 6-1.4 7.7-2.1 7.4-3.2 24.3-2.8 46.8l.3 23.7H237v-14.7l-12.2 6.3c-39.5 20.1-85.9 23.8-129.3 10.4-3.8-1.2-8.9-3-11.2-4.1-2.4-1-4.6-1.9-5-1.9-1.4 0-17.7-8.6-23.6-12.3-3.2-2.1-6.1-3.7-6.6-3.7-.4 0-1.6-.9-2.6-2s-2.1-2-2.5-2c-.4 0-.7 40.8-.5 90.7.2 88.4.2 91 2.2 97 5 14.9 13.7 25.1 27.3 31.7l8.5 4.1 181 .3c178.7.2 181.1.2 187.6-1.8 15.6-4.7 27.2-16.3 33.1-33l2.3-6.5.2-170.2.3-170.2-23 .1c-12.8.1-23.4-.3-23.9-.8s-2.1-3-3.6-5.7l-2.7-4.7H486v-17.3c0-15.3-.3-18.3-2.4-25.5-5.5-18.9-21.1-33.3-39.4-36.3-3.1-.5-17.1-.9-31-.9H388l-1-2.5c-1-2.7-1.6-3-2.5-1.5zM443 177.9c0 3.8-.7 4.8-12.2 16.4-13.3 13.4-17.8 18.3-17.8 19.1 0 .5-8.7 12.3-10 13.6-2.2 2.2-5.8 7.9-5.3 8.4.4.3-1.9.6-5 .6H387v-8.3c0-7 .3-8.8 2.3-11.4 1.2-1.7 2.9-4.1 3.7-5.3.8-1.2 2.1-2.9 2.8-3.6.7-.8 1.1-1.4.7-1.4-.3 0 .7-1.3 2.2-2.8 1.5-1.6 4.8-5.3 7.3-8.2 2.5-2.9 5.1-5.9 5.8-6.6.6-.7 1.2-1.4 1.2-1.7 0-.2 2.6-3.2 5.8-6.5l5.7-6.1 9.3-.1h9.2v3.9zm-75.7 107l.2 27.1H349.2l.5-3.8c.3-2 .6-4.7.7-6 0-1.2.4-2.2.8-2.2.3 0 .5-.8.4-1.8-.2-.9.1-2 .5-2.3.5-.3 1-1.7 1.1-3.2.1-1.5.6-2.7 1.1-2.7.4 0 .6-.4.2-1-.9-1.5 11.1-32.7 12.2-31.6.3.2.5 12.6.6 27.5zm27.4-13.8c1.7 2.7 2.9 4.9 2.6 4.9-.3 0 0 .7.7 1.5s.9 1.5.5 1.5c-.5 0 0 .9 1 2s1.5 2 1 2c-.4 0-.3.6.2 1.2.6.7 1.3 2.6 1.7 4.3.4 1.6 1.4 4.3 2.1 6 1.2 2.6 5.5 16 5.5 17.1 0 .2-5.2.4-11.5.4H387v-26.8l.1-26.7 2.2 3.9c1.2 2.1 3.6 6 5.4 8.7zm-258.4 60.8l5.7.1v55H87v-55.5l21.8.2c11.9 0 24.3.2 27.5.2zm78.5 0l3.2.1v55h-56v-54.9l2.3-.3c1.8-.2 39.2-.2 50.5.1zm71.3.9c.4.4.9 2.7 1.1 5.2.2 2.5.7 5 1.1 5.6.3.6.8 2.7 1.1 4.7.2 1.9.9 4.3 1.4 5.4.6 1 1.1 8.9 1.1 17.6l.2 15.7H237v-54.9l4.8-.3c8.6-.5 43.6.2 44.3 1zm81.2 20.2c0 11.8-.2 24.3-.2 27.7l-.1 6.3h-8.9c-8.2 0-8.9-.1-8.4-1.9.3-1-.3-4.7-1.2-8.2-1.3-4.6-1.9-12-2.2-25.9l-.5-19.6 10.8.1h10.9l-.2 21.5zm45.9-20.2c.7.7 1.3 4 1.4 7.5.1 3.4.3 6.4.4 6.7.5 1.3.4 23-.1 23-.3 0-.5 2.7-.4 6 0 3.3-.2 6-.6 6-.4 0-.6 1.1-.3 2.5l.4 2.5h-27v-55.5l12.5.1c8.4 0 12.9.4 13.7 1.2zM142 440v33H87v-66h55v33zm76 0v33h-56v-66h56v33zm74 0v33h-55v-66h55v33zm75.1-31.3c.4 7.5.3 25.1-.2 24.5-.4-.4-2.3-4.5-4.4-9.2-2-4.7-4.3-9.9-5.1-11.7-2.2-4.9-1.9-5.3 4.1-5.3 4.5 0 5.5.3 5.6 1.7zm41.9-.3c0 2-5.6 19-7.5 22.6-.9 1.7-1.3 3.5-1 4 .3.6.1 1-.4 1-.6 0-1.1.5-1.1 1.1 0 1.7-8 18-10.2 20.8-1.8 2.3-1.8 1.8-1.8-24.3V407h11c8.8 0 11 .3 11 1.4zm-89.6 18.1c1.6 3 3.3 5.5 3.8 5.5s.6.4.3 1c-.3.5-.1 1 .4 1 .6 0 1 .3.9.7-.4 1.2 20.3 31.6 24.4 36l2.1 2.3H312l.1-30.3v-30.2l2.2 4.2c1.2 2.3 3.5 6.7 5.1 9.8zm123.6 28V473h-13c-12.9 0-13.1 0-12-2.1.7-1.1 1.8-2.8 2.6-3.7 2.4-2.7 6.4-8.2 14.4-20.1 4.1-6.1 7.6-11.1 7.8-11.1.1 0 .2 8.3.2 18.5z"/></svg>